HIERARCHY
ROOT Hips
{
	OFFSET 0.00000 0.00000 0.00000
	CHANNELS 6 Xposition Yposition Zposition Zrotation Yrotation Xrotation 
	JOINT LHipJoint
	{
		OFFSET 0 0 0
		CHANNELS 3 Zrotation Yrotation Xrotation
		JOINT LeftUpLeg
		{
			OFFSET 1.44361 -1.63093 0.70831
			CHANNELS 3 Zrotation Yrotation Xrotation
			JOINT LeftLeg
			{
				OFFSET 2.20103 -6.04728 0.00000
				CHANNELS 3 Zrotation Yrotation Xrotation
				JOINT LeftFoot
				{
					OFFSET 2.54154 -6.98283 0.00000
					CHANNELS 3 Zrotation Yrotation Xrotation
					JOINT LeftToeBase
					{
						OFFSET 0.05971 -0.16406 1.77582
						CHANNELS 3 Zrotation Yrotation Xrotation
						End Site
						{
							OFFSET 0.00000 -0.00000 0.90832
						}
					}
				}
			}
		}
	}
	JOINT RHipJoint
	{
		OFFSET 0 0 0
		CHANNELS 3 Zrotation Yrotation Xrotation
		JOINT RightUpLeg
		{
			OFFSET -1.65838 -1.63093 0.70830
			CHANNELS 3 Zrotation Yrotation Xrotation
			JOINT RightLeg
			{
				OFFSET -2.26926 -6.23475 0.00000
				CHANNELS 3 Zrotation Yrotation Xrotation
				JOINT RightFoot
				{
					OFFSET -2.34808 -6.45129 0.00000
					CHANNELS 3 Zrotation Yrotation Xrotation
					JOINT RightToeBase
					{
						OFFSET -0.18633 -0.51195 1.68539
						CHANNELS 3 Zrotation Yrotation Xrotation
						End Site
						{
							OFFSET -0.00000 -0.00000 0.88927
						}
					}
				}
			}
		}
	}
	JOINT LowerBack
	{
		OFFSET 0 0 0
		CHANNELS 3 Zrotation Yrotation Xrotation
		JOINT Spine
		{
			OFFSET -0.10393 2.01691 0.06920
			CHANNELS 3 Zrotation Yrotation Xrotation
			JOINT Spine1
			{
				OFFSET 0.04092 2.01302 -0.05283
				CHANNELS 3 Zrotation Yrotation Xrotation
				JOINT Neck
				{
					OFFSET 0 0 0
					CHANNELS 3 Zrotation Yrotation Xrotation
					JOINT Neck1
					{
						OFFSET -0.02870 1.58978 -0.03113
						CHANNELS 3 Zrotation Yrotation Xrotation
						JOINT Head
						{
							OFFSET 0.11532 1.54326 -0.29195
							CHANNELS 3 Zrotation Yrotation Xrotation
							End Site
							{
								OFFSET 0.04056 1.59999 -0.09535
							}
						}
					}
				}
				JOINT LeftShoulder
				{
					OFFSET 0 0 0
					CHANNELS 3 Zrotation Yrotation Xrotation
					JOINT LeftArm
					{
						OFFSET 3.30641 1.15764 0.01104
						CHANNELS 3 Zrotation Yrotation Xrotation
						JOINT LeftForeArm
						{
							OFFSET 4.63208 -0.00000 0.00000
							CHANNELS 3 Zrotation Yrotation Xrotation
							JOINT LeftHand
							{
								OFFSET 3.41924 -0.00000 -0.00000
								CHANNELS 3 Zrotation Yrotation Xrotation
								JOINT LeftFingerBase
								{
									OFFSET 0 0 0
									CHANNELS 3 Zrotation Yrotation Xrotation
									JOINT LeftHandIndex1
									{
										OFFSET 0.62537 -0.00000 -0.00000
										CHANNELS 3 Zrotation Yrotation Xrotation
										End Site
										{
											OFFSET 0.50419 -0.00000 -0.00000
										}
									}
								}
								JOINT LThumb
								{
									OFFSET 0 0 0
									CHANNELS 3 Zrotation Yrotation Xrotation
									End Site
									{
										OFFSET 0.51189 -0.00000 0.51189
									}
								}
							}
						}
					}
				}
				JOINT RightShoulder
				{
					OFFSET 0 0 0
					CHANNELS 3 Zrotation Yrotation Xrotation
					JOINT RightArm
					{
						OFFSET -3.78081 1.02180 -0.16609
						CHANNELS 3 Zrotation Yrotation Xrotation
						JOINT RightForeArm
						{
							OFFSET -4.40640 -0.00000 -0.00000
							CHANNELS 3 Zrotation Yrotation Xrotation
							JOINT RightHand
							{
								OFFSET -3.44675 -0.00000 0.00000
								CHANNELS 3 Zrotation Yrotation Xrotation
								JOINT RightFingerBase
								{
									OFFSET 0 0 0
									CHANNELS 3 Zrotation Yrotation Xrotation
									JOINT RightHandIndex1
									{
										OFFSET -0.51367 -0.00000 -0.00000
										CHANNELS 3 Zrotation Yrotation Xrotation
										End Site
										{
											OFFSET -0.41414 -0.00000 -0.00000
										}
									}
								}
								JOINT RThumb
								{
									OFFSET 0 0 0
									CHANNELS 3 Zrotation Yrotation Xrotation
									End Site
									{
										OFFSET -0.42046 -0.00000 0.42046
									}
								}
							}
						}
					}
				}
			}
		}
	}
}
MOTION
Frames: 7
Frame Time: .0083333
10.2184 17.1326 15.9754 174.0000 -2.2179 -164.1590 0.0000 0.0000 0.0000 -16.4130 -13.2884 2.8709 0.2924 3.4773 9.6106 1.0082 0.1047 -19.0231 12.9617 -18.7683 -69.0065 0.0000 0.0000 0.0000 -2.4198 14.3717 -22.7779 -0.4142 -4.1311 11.4457 0.0940 -7.7529 -8.7227 -3.3486 11.2390 -33.0903 -3.0097 -5.2285 -4.3616 6.5735 -7.4472 1.4640 7.8876 -4.0710 5.2570 0.6712 -2.9140 -13.1925 -0.6787 -1.8279 32.3629 -0.4669 -0.0149 12.9793 0.0000 -0.0000 0.0000 -91.2960 -19.0841 47.2070 14.8270 -23.9046 -3.1555 -0.0000 -0.0000 17.0109 27.6621 -20.2997 -10.3066 -7.1250 0.0000 -0.0000 -0.5184 7.3131 0.4483 0.0000 -0.0000 0.0000 84.6938 -9.3075 -56.9885 -6.2151 10.6205 -0.5782 0.0000 0.0000 65.8712 -5.6106 -38.3983 3.4917 7.1250 -0.0000 -0.0000 37.1828 -64.7583 -18.9856
10.3596 17.2079 15.8461 172.9410 -2.4429 -162.9150 0.0000 0.0000 0.0000 -16.5790 -13.7413 1.3480 0.3253 3.6662 10.1393 0.9183 -0.2978 -18.0182 13.1496 -18.8355 -69.5894 0.0000 0.0000 0.0000 -3.2404 13.9470 -23.1312 -0.3658 -3.8849 10.7530 0.1035 -7.9722 -8.8510 -3.3294 11.2102 -32.9920 -3.1406 -5.4396 -4.9647 6.6658 -7.6994 1.1087 7.9885 -4.1880 5.2973 0.9545 -2.7110 -13.1817 -1.2078 -1.4535 32.2384 -0.6678 0.1053 12.9176 -0.0000 0.0000 0.0000 -91.0331 -18.8461 47.9960 15.2277 -24.4624 -3.3197 -0.0000 -0.0000 16.3143 26.8833 -20.7337 -10.1750 -7.1250 0.0000 -0.0000 -1.0649 6.9863 0.9277 -0.0000 0.0000 0.0000 84.1242 -9.1835 -53.3204 -6.2869 10.7398 -0.5915 0.0000 0.0000 61.9279 -5.7389 -37.9205 3.5343 7.1250 -0.0000 -0.0000 36.4105 -64.4197 -18.2585
10.4951 17.2723 15.7220 172.0640 -2.4123 -162.1220 0.0000 0.0000 0.0000 -16.6529 -13.8104 0.3529 0.3448 3.7730 10.4390 0.8868 -1.0930 -17.4619 13.2929 -18.8854 -70.0327 0.0000 0.0000 0.0000 -3.7539 13.6600 -23.1223 -0.3197 -3.6346 10.0508 0.1031 -7.9729 -8.8620 -3.1757 10.9742 -32.1930 -3.2096 -5.4608 -5.2106 6.6817 -7.7072 0.9348 8.0285 -4.1846 5.2655 1.0304 -2.6168 -13.0572 -1.5505 -1.2771 31.8775 -0.7882 0.1276 12.7378 0.0000 0.0000 0.0000 -90.6030 -18.6442 49.0248 15.6722 -25.0742 -3.5059 -0.0000 -0.0000 16.2379 25.7250 -21.2560 -9.9080 -7.1250 0.0000 -0.0000 -1.8586 6.6356 1.6323 0.0000 0.0000 0.0000 83.7026 -9.0448 -50.3989 -6.3883 10.9083 -0.6106 0.0000 0.0000 58.3239 -5.1223 -37.7122 3.1385 7.1250 -0.0000 -0.0000 36.7575 -64.0870 -18.1742
10.6229 17.3231 15.6039 171.2740 -2.1871 -161.7680 0.0000 0.0000 0.0000 -16.8276 -13.6601 -0.0416 0.3466 3.7829 10.4667 0.8797 -1.9331 -17.1762 13.3664 -18.9105 -70.2598 0.0000 0.0000 0.0000 -4.1623 13.7667 -22.7235 -0.2869 -3.4447 9.5194 0.0916 -7.8982 -9.0564 -3.0367 10.7543 -31.4556 -3.3818 -5.3925 -5.1045 6.6518 -7.5941 0.9155 8.1207 -4.1277 5.1841 0.8639 -2.5704 -12.7997 -1.7067 -1.1792 31.3811 -0.8040 0.1075 12.4805 -0.0000 -0.0000 0.0000 -90.1866 -18.5070 49.8325 16.1130 -25.6736 -3.6948 -0.0000 -0.0000 16.5785 24.4192 -22.2290 -9.7461 -7.1250 0.0000 -0.0000 -2.7893 5.8319 2.4945 -0.0000 -0.0000 0.0000 83.2616 -8.8832 -48.0674 -6.4862 11.0705 -0.6292 0.0000 0.0000 55.4650 -4.3572 -37.9118 2.6805 7.1250 -0.0000 -0.0000 37.7854 -64.0346 -18.7084
10.7448 17.3635 15.4966 170.4720 -1.9396 -161.6350 0.0000 0.0000 0.0000 -17.1699 -13.5924 -0.2481 0.3506 3.8045 10.5272 0.8931 -2.5314 -17.1840 13.3929 -18.9195 -70.3414 0.0000 0.0000 0.0000 -4.5791 13.9184 -22.2535 -0.2719 -3.3540 9.2659 0.0708 -7.7255 -9.3304 -3.0241 10.7340 -31.3878 -3.7264 -5.3626 -4.7752 6.5851 -7.5169 0.9033 8.2869 -4.0892 5.0074 0.6046 -2.5112 -12.2309 -1.7557 -1.0629 30.7870 -0.7561 0.1052 12.1246 -0.0000 0.0000 0.0000 -89.8044 -18.2487 50.1259 16.4974 -26.1904 -3.8629 -0.0000 -0.0000 16.9542 23.7458 -21.8847 -9.3123 -7.1250 0.0000 -0.0000 -3.1750 6.3167 2.8108 -0.0000 0.0000 0.0000 82.7193 -8.5561 -47.1568 -6.5014 11.0957 -0.6322 0.0000 0.0000 54.5149 -3.8237 -38.1608 2.3647 7.1250 -0.0000 -0.0000 38.6468 -64.0813 -19.2394
10.8634 17.3998 15.3942 169.7830 -1.6860 -161.6910 0.0000 0.0000 0.0000 -17.4686 -13.3878 -0.4323 0.3583 3.8457 10.6429 0.9185 -2.8904 -17.3685 13.3630 -18.9093 -70.2493 0.0000 0.0000 0.0000 -4.7442 13.8767 -21.6983 -0.2611 -3.2873 9.0796 0.0451 -7.4070 -9.4821 -3.0415 10.7619 -31.4811 -3.8791 -5.1842 -4.3944 6.3488 -7.2452 1.0851 8.1801 -3.9472 4.9212 0.5184 -2.5382 -11.9253 -1.6793 -1.1927 30.1410 -0.7287 0.0192 11.8028 0.0000 0.0000 0.0000 -89.1863 -18.1630 50.4494 16.7685 -26.5516 -3.9833 -0.0000 -0.0000 17.1086 23.9219 -22.7585 -9.7373 -7.1250 0.0000 -0.0000 -3.1587 5.3597 2.8542 0.0000 0.0000 0.0000 82.4874 -7.5979 -48.8533 -6.4259 10.9705 -0.6177 0.0000 0.0000 56.2928 -3.7930 -38.5368 2.3652 7.1250 -0.0000 -0.0000 39.1870 -64.3607 -19.8003
10.9758 17.4376 15.2858 169.1900 -1.3410 -161.9010 0.0000 0.0000 0.0000 -17.7595 -12.9945 -0.4825 0.3593 3.8508 10.6574 0.9399 -3.0511 -17.5494 13.2660 -18.8761 -69.9497 0.0000 0.0000 0.0000 -4.7137 13.8892 -20.8948 -0.2406 -3.1569 8.7157 0.0299 -7.1796 -9.5168 -3.0476 10.7717 -31.5138 -3.9790 -4.9804 -4.0289 6.1225 -6.9526 1.3166 8.0509 -3.7989 4.8877 0.2552 -2.5520 -11.3919 -1.5578 -1.2792 29.3294 -0.6456 -0.0628 11.3794 0.0000 -0.0000 0.0000 -88.6298 -17.9291 50.2394 16.9142 -26.7445 -4.0486 -0.0000 -0.0000 17.0183 24.8203 -22.0708 -9.8586 -7.1250 0.0000 -0.0000 -2.5203 5.9278 2.2488 0.0000 -0.0000 0.0000 82.1084 -6.5079 -50.7119 -6.3208 10.7961 -0.5979 0.0000 0.0000 58.8579 -4.3139 -39.2446 2.7322 7.1250 -0.0000 -0.0000 39.6648 -65.0430 -20.6946
